<mxfile host="app.diagrams.net" modified="2021-09-02T15:28:25.675Z" agent="5.0 (Windows NT 10.0; Win64; x64) AppleWebKit/537.36 (KHTML, like Gecko) Chrome/92.0.4515.159 Safari/537.36" etag="UwgLNeA2s_Ac1O-8DoTC" version="15.0.4" type="github">
  <diagram id="oVClgbnNPI_kQNeYoUsN" name="Page-1">
    <mxGraphModel dx="782" dy="436" grid="1" gridSize="10" guides="1" tooltips="1" connect="1" arrows="1" fold="1" page="1" pageScale="1" pageWidth="827" pageHeight="1169" math="0" shadow="0">
      <root>
        <mxCell id="0" />
        <mxCell id="1" parent="0" />
        <mxCell id="6pVcPEt_9Zaur9T3BkWH-1" value="" style="edgeStyle=orthogonalEdgeStyle;rounded=0;orthogonalLoop=1;jettySize=auto;html=1;" parent="1" source="6pVcPEt_9Zaur9T3BkWH-2" target="6pVcPEt_9Zaur9T3BkWH-5" edge="1">
          <mxGeometry relative="1" as="geometry" />
        </mxCell>
        <mxCell id="6pVcPEt_9Zaur9T3BkWH-2" value="Start" style="ellipse;whiteSpace=wrap;html=1;" parent="1" vertex="1">
          <mxGeometry x="340" y="170" width="120" height="80" as="geometry" />
        </mxCell>
        <mxCell id="6pVcPEt_9Zaur9T3BkWH-3" value="" style="edgeStyle=orthogonalEdgeStyle;rounded=0;orthogonalLoop=1;jettySize=auto;html=1;startArrow=none;" parent="1" source="e1ztAaJXQm2rU-fON_Bk-2" target="6pVcPEt_9Zaur9T3BkWH-11" edge="1">
          <mxGeometry relative="1" as="geometry" />
        </mxCell>
        <mxCell id="6pVcPEt_9Zaur9T3BkWH-4" value="" style="edgeStyle=orthogonalEdgeStyle;rounded=0;orthogonalLoop=1;jettySize=auto;html=1;" parent="1" source="6pVcPEt_9Zaur9T3BkWH-5" target="6pVcPEt_9Zaur9T3BkWH-8" edge="1">
          <mxGeometry relative="1" as="geometry" />
        </mxCell>
        <mxCell id="6pVcPEt_9Zaur9T3BkWH-5" value="" style="rhombus;whiteSpace=wrap;html=1;" parent="1" vertex="1">
          <mxGeometry x="360" y="290" width="80" height="80" as="geometry" />
        </mxCell>
        <mxCell id="6pVcPEt_9Zaur9T3BkWH-6" value="drive(BASEDIST,1)" style="rounded=1;whiteSpace=wrap;html=1;" parent="1" vertex="1">
          <mxGeometry x="340" y="400" width="120" height="60" as="geometry" />
        </mxCell>
        <mxCell id="6pVcPEt_9Zaur9T3BkWH-7" style="edgeStyle=orthogonalEdgeStyle;rounded=0;orthogonalLoop=1;jettySize=auto;html=1;entryX=1;entryY=0.5;entryDx=0;entryDy=0;exitX=1;exitY=0.5;exitDx=0;exitDy=0;" parent="1" source="6pVcPEt_9Zaur9T3BkWH-8" target="6pVcPEt_9Zaur9T3BkWH-5" edge="1">
          <mxGeometry relative="1" as="geometry">
            <Array as="points">
              <mxPoint x="490" y="540" />
              <mxPoint x="490" y="330" />
            </Array>
          </mxGeometry>
        </mxCell>
        <mxCell id="6pVcPEt_9Zaur9T3BkWH-8" value="turn(BASEDIST,+-1)" style="rounded=1;whiteSpace=wrap;html=1;" parent="1" vertex="1">
          <mxGeometry x="340" y="510" width="120" height="60" as="geometry" />
        </mxCell>
        <mxCell id="6pVcPEt_9Zaur9T3BkWH-9" value="BASEDIST = 562" style="text;html=1;align=center;verticalAlign=middle;resizable=0;points=[];autosize=1;strokeColor=none;" parent="1" vertex="1">
          <mxGeometry x="170" y="250" width="110" height="20" as="geometry" />
        </mxCell>
        <mxCell id="6pVcPEt_9Zaur9T3BkWH-10" value="i = 14" style="text;html=1;align=center;verticalAlign=middle;resizable=0;points=[];autosize=1;strokeColor=none;" parent="1" vertex="1">
          <mxGeometry x="305" y="300" width="50" height="20" as="geometry" />
        </mxCell>
        <mxCell id="6pVcPEt_9Zaur9T3BkWH-11" value="Stop" style="ellipse;whiteSpace=wrap;html=1;" parent="1" vertex="1">
          <mxGeometry y="290" width="120" height="80" as="geometry" />
        </mxCell>
        <mxCell id="6pVcPEt_9Zaur9T3BkWH-12" value="i++" style="text;html=1;align=center;verticalAlign=middle;resizable=0;points=[];autosize=1;strokeColor=none;" parent="1" vertex="1">
          <mxGeometry x="505" y="480" width="30" height="20" as="geometry" />
        </mxCell>
        <mxCell id="vEvdbltbi7DiJ0iLyohz-1" value="BASEDEG = 3,3Â°" style="text;html=1;align=center;verticalAlign=middle;resizable=0;points=[];autosize=1;strokeColor=none;" parent="1" vertex="1">
          <mxGeometry x="170" y="220" width="110" height="20" as="geometry" />
        </mxCell>
        <mxCell id="e1ztAaJXQm2rU-fON_Bk-2" value="&lt;span&gt;drive(BASEDIST,1)&lt;/span&gt;" style="rounded=1;whiteSpace=wrap;html=1;" vertex="1" parent="1">
          <mxGeometry x="185" y="300" width="120" height="60" as="geometry" />
        </mxCell>
        <mxCell id="e1ztAaJXQm2rU-fON_Bk-3" value="" style="edgeStyle=orthogonalEdgeStyle;rounded=0;orthogonalLoop=1;jettySize=auto;html=1;endArrow=none;" edge="1" parent="1" source="6pVcPEt_9Zaur9T3BkWH-5" target="e1ztAaJXQm2rU-fON_Bk-2">
          <mxGeometry relative="1" as="geometry">
            <mxPoint x="360" y="330" as="sourcePoint" />
            <mxPoint x="180" y="330" as="targetPoint" />
          </mxGeometry>
        </mxCell>
      </root>
    </mxGraphModel>
  </diagram>
</mxfile>
